<svg width="24" height="24" viewBox="0 0 24 24" fill="none" xmlns="http://www.w3.org/2000/svg">
<path d="M24 12C24 18.6274 18.6274 24 12 24C5.37258 24 0 18.6274 0 12C0 5.37258 5.37258 0 12 0C18.6274 0 24 5.37258 24 12ZM2.64 12C2.64 17.1694 6.83062 21.36 12 21.36C17.1694 21.36 21.36 17.1694 21.36 12C21.36 6.83062 17.1694 2.64 12 2.64C6.83062 2.64 2.64 6.83062 2.64 12Z" fill="white"/>
<path d="M6.6321 15V7.72727H9.50142C10.0507 7.72727 10.5194 7.82552 10.9077 8.02202C11.2983 8.21615 11.5954 8.49195 11.799 8.84943C12.005 9.20455 12.108 9.6224 12.108 10.103C12.108 10.5859 12.0038 11.0014 11.7955 11.3494C11.5871 11.6951 11.2853 11.9602 10.8899 12.1449C10.4969 12.3295 10.0211 12.4219 9.46236 12.4219H7.54119V11.1861H9.21378C9.50734 11.1861 9.75118 11.1458 9.94531 11.0653C10.1394 10.9848 10.2839 10.8641 10.3786 10.7031C10.4756 10.5421 10.5241 10.3421 10.5241 10.103C10.5241 9.86151 10.4756 9.65791 10.3786 9.49219C10.2839 9.32647 10.1383 9.20099 9.94176 9.11577C9.74763 9.02817 9.5026 8.98438 9.20668 8.98438H8.16974V15H6.6321ZM10.5597 11.6903L12.3672 15H10.6697L8.90128 11.6903H10.5597Z" fill="white"/>
<path d="M13.1662 17.0455V9.54545H14.6577V10.4616H14.7251C14.7914 10.3149 14.8873 10.1657 15.0128 10.0142C15.1406 9.86032 15.3063 9.73248 15.5099 9.63068C15.7159 9.52652 15.9716 9.47443 16.277 9.47443C16.6747 9.47443 17.0417 9.5786 17.3778 9.78693C17.714 9.9929 17.9827 10.3042 18.1839 10.7209C18.3852 11.1352 18.4858 11.6548 18.4858 12.2798C18.4858 12.8883 18.3875 13.402 18.1911 13.821C17.9969 14.2377 17.7318 14.5537 17.3956 14.7692C17.0618 14.9822 16.6877 15.0888 16.2734 15.0888C15.9799 15.0888 15.7301 15.0402 15.5241 14.9432C15.3205 14.8461 15.1536 14.7242 15.0234 14.5774C14.8932 14.4283 14.7938 14.2779 14.7251 14.1264H14.679V17.0455H13.1662ZM14.647 12.2727C14.647 12.5971 14.692 12.88 14.782 13.1214C14.8719 13.3629 15.0021 13.5511 15.1726 13.6861C15.343 13.8187 15.5502 13.8849 15.794 13.8849C16.0402 13.8849 16.2486 13.8175 16.419 13.6825C16.5895 13.5452 16.7185 13.3558 16.8061 13.1143C16.8961 12.8705 16.9411 12.59 16.9411 12.2727C16.9411 11.9579 16.8973 11.6809 16.8097 11.4418C16.7221 11.2027 16.593 11.0156 16.4226 10.8807C16.2521 10.7457 16.0426 10.6783 15.794 10.6783C15.5478 10.6783 15.3395 10.7434 15.169 10.8736C15.0009 11.0038 14.8719 11.1884 14.782 11.4276C14.692 11.6667 14.647 11.9484 14.647 12.2727Z" fill="white"/>
</svg>
