<svg xmlns="http://www.w3.org/2000/svg" xmlns:xlink="http://www.w3.org/1999/xlink" viewBox="0 0 1000 1000" width="1000" height="1000" preserveAspectRatio="xMidYMid meet" style="width: 100%; height: 100%; transform: translate3d(0px, 0px, 0px); content-visibility: visible;" id="Successfully Done"><defs><clipPath id="__lottie_element_315"><rect width="1000" height="1000" x="0" y="0"/></clipPath><clipPath id="__lottie_element_329"><path d="M0,0 L1000,0 L1000,1000 L0,1000z"/></clipPath></defs><g clip-path="url(#__lottie_element_315)"><g clip-path="url(#__lottie_element_329)" transform="matrix(1.2769852876663208,0,0,1.2769852876663208,-138.49261474609375,-138.49261474609375)" opacity="1" style="display: block;"><g transform="matrix(0.899277925491333,0,0,0.899277925491333,491.5169372558594,456.4281005859375)" opacity="0.00010777913730350975" style="display: none;"><g opacity="1" transform="matrix(1,0,0,1,162.49000549316406,138.49000549316406)"><path stroke-linecap="butt" stroke-linejoin="miter" fill-opacity="0" stroke-miterlimit="4" stroke="rgb(78,247,48)" stroke-opacity="1" stroke-width="11" d=" M-153,-245.49000549316406 C-238.875,-245.49000549316406 -308.489990234375,-175.875 -308.489990234375,-90 C-308.489990234375,-4.125 -238.875,65.48999786376953 -153,65.48999786376953 C-67.125,65.48999786376953 2.490000009536743,-4.125 2.490000009536743,-90 C2.490000009536743,-175.875 -67.125,-245.49000549316406 -153,-245.49000549316406z"/></g></g><g transform="matrix(0.8989274501800537,0,0,0.8989274501800537,491.5219421386719,456.4461975097656)" opacity="0.0003134868779301314" style="display: none;"><g opacity="1" transform="matrix(1,0,0,1,162.49000549316406,138.49000549316406)"><path stroke-linecap="butt" stroke-linejoin="miter" fill-opacity="0" stroke-miterlimit="4" stroke="rgb(78,247,48)" stroke-opacity="1" stroke-width="11" d=" M-153,-245.49000549316406 C-238.875,-245.49000549316406 -308.489990234375,-175.875 -308.489990234375,-90 C-308.489990234375,-4.125 -238.875,65.48999786376953 -153,65.48999786376953 C-67.125,65.48999786376953 2.490000009536743,-4.125 2.490000009536743,-90 C2.490000009536743,-175.875 -67.125,-245.49000549316406 -153,-245.49000549316406z"/></g></g><g transform="matrix(0.9100000262260437,0,0,0.9100000262260437,491.3637390136719,455.87432861328125)" opacity="1" style="display: block;"><g opacity="1" transform="matrix(1,0,0,1,162.49000549316406,138.49000549316406)"><path fill="rgb(77,246,47)" fill-opacity="1" d=" M-153,-245.49000549316406 C-238.875,-245.49000549316406 -308.489990234375,-175.875 -308.489990234375,-90 C-308.489990234375,-4.125 -238.875,65.48999786376953 -153,65.48999786376953 C-67.125,65.48999786376953 2.490000009536743,-4.125 2.490000009536743,-90 C2.490000009536743,-175.875 -67.125,-245.49000549316406 -153,-245.49000549316406z"/></g></g><g transform="matrix(0.7799999713897705,0,0,0.7799999713897705,506,497)" opacity="1" style="display: block;"><g opacity="1" transform="matrix(1,0,0,1,0,0)"><path stroke-linecap="round" stroke-linejoin="round" fill-opacity="0" stroke="rgb(255,255,255)" stroke-opacity="1" stroke-width="44" d=" M-126,-3 C-126,-3 -56.82899856567383,60.465999603271484 -35.31100082397461,80.20999908447266"/></g></g></g><g transform="matrix(0,0,0,0,502,502)" opacity="1" style="display: block;"><g opacity="1" transform="matrix(1,0,0,1,35.24800109863281,-3.752000093460083)"><path stroke-linecap="butt" stroke-linejoin="miter" fill-opacity="0" stroke-miterlimit="4" stroke="rgb(78,247,48)" stroke-opacity="1" stroke-width="11" d=" M381,-463.24798583984375 C343.8599853515625,-463.24798583984375 313.75201416015625,-433.1400146484375 313.75201416015625,-396 C313.75201416015625,-358.8599853515625 343.8599853515625,-328.75201416015625 381,-328.75201416015625 C418.1400146484375,-328.75201416015625 448.24798583984375,-358.8599853515625 448.24798583984375,-396 C448.24798583984375,-433.1400146484375 418.1400146484375,-463.24798583984375 381,-463.24798583984375z"/></g></g><g transform="matrix(0,0,0,0,498,502)" opacity="1" style="display: block;"><g opacity="1" transform="matrix(1,0,0,1,35.24800109863281,-3.752000093460083)"><path stroke-linecap="butt" stroke-linejoin="miter" fill-opacity="0" stroke-miterlimit="4" stroke="rgb(78,247,48)" stroke-opacity="1" stroke-width="11" d=" M381,-463.24798583984375 C343.8599853515625,-463.24798583984375 313.75201416015625,-433.1400146484375 313.75201416015625,-396 C313.75201416015625,-358.8599853515625 343.8599853515625,-328.75201416015625 381,-328.75201416015625 C418.1400146484375,-328.75201416015625 448.24798583984375,-358.8599853515625 448.24798583984375,-396 C448.24798583984375,-433.1400146484375 418.1400146484375,-463.24798583984375 381,-463.24798583984375z"/></g></g><g transform="matrix(0,0,0,0,502,505)" opacity="1" style="display: block;"><g opacity="1" transform="matrix(1,0,0,1,35.24800109863281,-3.752000093460083)"><path stroke-linecap="butt" stroke-linejoin="miter" fill-opacity="0" stroke-miterlimit="4" stroke="rgb(78,247,48)" stroke-opacity="1" stroke-width="11" d=" M381,-463.24798583984375 C343.8599853515625,-463.24798583984375 313.75201416015625,-433.1400146484375 313.75201416015625,-396 C313.75201416015625,-358.8599853515625 343.8599853515625,-328.75201416015625 381,-328.75201416015625 C418.1400146484375,-328.75201416015625 448.24798583984375,-358.8599853515625 448.24798583984375,-396 C448.24798583984375,-433.1400146484375 418.1400146484375,-463.24798583984375 381,-463.24798583984375z"/></g></g><g transform="matrix(0,0,0,0,504,502)" opacity="1" style="display: block;"><g opacity="1" transform="matrix(1,0,0,1,35.24800109863281,-3.752000093460083)"><path stroke-linecap="butt" stroke-linejoin="miter" fill-opacity="0" stroke-miterlimit="4" stroke="rgb(78,247,48)" stroke-opacity="1" stroke-width="11" d=" M381,-463.24798583984375 C343.8599853515625,-463.24798583984375 313.75201416015625,-433.1400146484375 313.75201416015625,-396 C313.75201416015625,-358.8599853515625 343.8599853515625,-328.75201416015625 381,-328.75201416015625 C418.1400146484375,-328.75201416015625 448.24798583984375,-358.8599853515625 448.24798583984375,-396 C448.24798583984375,-433.1400146484375 418.1400146484375,-463.24798583984375 381,-463.24798583984375z"/></g></g><g transform="matrix(0.15831658244132996,0,0,0.1597469002008438,553.0745239257812,662.429443359375)" opacity="1" style="display: block;"><g opacity="1" transform="matrix(1,0,0,1,35.24800109863281,-3.752000093460083)"><path stroke-linecap="butt" stroke-linejoin="miter" fill-opacity="0" stroke-miterlimit="4" stroke="rgb(78,247,48)" stroke-opacity="1" stroke-width="11" d=" M381,-463.24798583984375 C343.8599853515625,-463.24798583984375 313.75201416015625,-433.1400146484375 313.75201416015625,-396 C313.75201416015625,-358.8599853515625 343.8599853515625,-328.75201416015625 381,-328.75201416015625 C418.1400146484375,-328.75201416015625 448.24798583984375,-358.8599853515625 448.24798583984375,-396 C448.24798583984375,-433.1400146484375 418.1400146484375,-463.24798583984375 381,-463.24798583984375z"/></g></g><g transform="matrix(0.15831658244132996,0,0,0.1597469002008438,304.25030517578125,482.0124206542969)" opacity="1" style="display: block;"><g opacity="1" transform="matrix(1,0,0,1,35.24800109863281,-3.752000093460083)"><path stroke-linecap="butt" stroke-linejoin="miter" fill-opacity="0" stroke-miterlimit="4" stroke="rgb(78,247,48)" stroke-opacity="1" stroke-width="11" d=" M381,-463.24798583984375 C343.8599853515625,-463.24798583984375 313.75201416015625,-433.1400146484375 313.75201416015625,-396 C313.75201416015625,-358.8599853515625 343.8599853515625,-328.75201416015625 381,-328.75201416015625 C418.1400146484375,-328.75201416015625 448.24798583984375,-358.8599853515625 448.24798583984375,-396 C448.24798583984375,-433.1400146484375 418.1400146484375,-463.24798583984375 381,-463.24798583984375z"/></g></g><g transform="matrix(0.08502976596355438,0,0,0.0857970267534256,546.8710327148438,405.9140625)" opacity="1" style="display: block;"><g opacity="1" transform="matrix(1,0,0,1,35.24800109863281,-3.752000093460083)"><path stroke-linecap="butt" stroke-linejoin="miter" fill-opacity="0" stroke-miterlimit="4" stroke="rgb(78,247,48)" stroke-opacity="1" stroke-width="11" d=" M381,-463.24798583984375 C343.8599853515625,-463.24798583984375 313.75201416015625,-433.1400146484375 313.75201416015625,-396 C313.75201416015625,-358.8599853515625 343.8599853515625,-328.75201416015625 381,-328.75201416015625 C418.1400146484375,-328.75201416015625 448.24798583984375,-358.8599853515625 448.24798583984375,-396 C448.24798583984375,-433.1400146484375 418.1400146484375,-463.24798583984375 381,-463.24798583984375z"/></g></g><g transform="matrix(0.11657185852527618,0,0,0.11762449145317078,329.5301513671875,676.2158203125)" opacity="1" style="display: block;"><g opacity="1" transform="matrix(1,0,0,1,35.24800109863281,-3.752000093460083)"><path stroke-linecap="butt" stroke-linejoin="miter" fill-opacity="0" stroke-miterlimit="4" stroke="rgb(78,247,48)" stroke-opacity="1" stroke-width="11" d=" M381,-463.24798583984375 C343.8599853515625,-463.24798583984375 313.75201416015625,-433.1400146484375 313.75201416015625,-396 C313.75201416015625,-358.8599853515625 343.8599853515625,-328.75201416015625 381,-328.75201416015625 C418.1400146484375,-328.75201416015625 448.24798583984375,-358.8599853515625 448.24798583984375,-396 C448.24798583984375,-433.1400146484375 418.1400146484375,-463.24798583984375 381,-463.24798583984375z"/></g></g><g transform="matrix(0.8415482044219971,0.25728708505630493,-0.25728708505630493,0.8415482044219971,561.8138427734375,480.9020080566406)" opacity="1" style="display: block;"><g opacity="1" transform="matrix(1,0,0,1,0,0)"><path stroke-linecap="round" stroke-linejoin="miter" fill-opacity="0" stroke-miterlimit="4" stroke="rgb(78,247,48)" stroke-opacity="1" stroke-width="4" d=" M104.9289321899414,-135.07107543945312 C112.15592956542969,-142.29806518554688 113.9809341430664,-144.12307739257812 126.60993194580078,-156.7520751953125 C134.41497802734375,-164.55711364746094 148.55711364746094,-150.41497802734375 140.7520751953125,-142.60992431640625 C128.12307739257812,-129.98092651367188 126.29806518554688,-128.1559295654297 119.0710678100586,-120.9289321899414 C111.26602172851562,-113.12388610839844 97.12388610839844,-127.26602172851562 104.9289321899414,-135.07107543945312"/></g></g><g transform="matrix(-0.8660253882408142,0.5,-0.5,-0.8660253882408142,490.9948425292969,505.14874267578125)" opacity="1" style="display: block;"><g opacity="1" transform="matrix(1,0,0,1,0,0)"><path stroke-linecap="round" stroke-linejoin="miter" fill-opacity="0" stroke-miterlimit="4" stroke="rgb(78,247,48)" stroke-opacity="1" stroke-width="4" d=" M104.9289321899414,-135.07107543945312 C112.15592956542969,-142.29806518554688 113.9809341430664,-144.12307739257812 126.60993194580078,-156.7520751953125 C134.41497802734375,-164.55711364746094 148.55711364746094,-150.41497802734375 140.7520751953125,-142.60992431640625 C128.12307739257812,-129.98092651367188 126.29806518554688,-128.1559295654297 119.0710678100586,-120.9289321899414 C111.26602172851562,-113.12388610839844 97.12388610839844,-127.26602172851562 104.9289321899414,-135.07107543945312"/></g></g><g transform="matrix(0.17672494053840637,-0.8314254879951477,0.8314254879951477,0.17672494053840637,496.6292724609375,445.7404479980469)" opacity="1" style="display: block;"><g opacity="1" transform="matrix(1,0,0,1,0,0)"><path stroke-linecap="round" stroke-linejoin="miter" fill-opacity="0" stroke-miterlimit="4" stroke="rgb(78,247,48)" stroke-opacity="1" stroke-width="4" d=" M104.9289321899414,-135.07107543945312 C112.15592956542969,-142.29806518554688 113.9809341430664,-144.12307739257812 126.60993194580078,-156.7520751953125 C134.41497802734375,-164.55711364746094 148.55711364746094,-150.41497802734375 140.7520751953125,-142.60992431640625 C128.12307739257812,-129.98092651367188 126.29806518554688,-128.1559295654297 119.0710678100586,-120.9289321899414 C111.26602172851562,-113.12388610839844 97.12388610839844,-127.26602172851562 104.9289321899414,-135.07107543945312"/></g></g><g transform="matrix(0.6700000166893005,0,0,0.6700000166893005,470.9113464355469,442.83544921875)" opacity="1" style="display: block;"><g opacity="1" transform="matrix(1,0,0,1,307,157)"><path stroke-linecap="butt" stroke-linejoin="miter" fill-opacity="0" stroke-miterlimit="4" stroke="rgb(77,246,47)" stroke-opacity="1" stroke-width="5" d=" M16.065988540649414,24.445112228393555 C16.065988540649414,24.445112228393555 -18.284019470214844,22.8336181640625 -18.284019470214844,22.8336181640625 C-18.284019470214844,22.8336181640625 -27.366134643554688,-10.333159446716309 -27.366134643554688,-10.333159446716309 C-27.366134643554688,-10.333159446716309 1.3708181381225586,-29.21986198425293 1.3708181381225586,-29.21986198425293 C1.3708181381225586,-29.21986198425293 28.213346481323242,-7.725708484649658 28.213346481323242,-7.725708484649658 C28.213346481323242,-7.725708484649658 16.065988540649414,24.445112228393555 16.065988540649414,24.445112228393555z"/></g></g><g transform="matrix(0.6700000166893005,0,0,0.6700000166893005,116.91134643554688,408.83544921875)" opacity="1" style="display: block;"><g opacity="1" transform="matrix(1,0,0,1,307,157)"><path stroke-linecap="butt" stroke-linejoin="miter" fill-opacity="0" stroke-miterlimit="4" stroke="rgb(77,246,47)" stroke-opacity="1" stroke-width="5" d=" M16.065988540649414,24.445112228393555 C16.065988540649414,24.445112228393555 -18.284019470214844,22.8336181640625 -18.284019470214844,22.8336181640625 C-18.284019470214844,22.8336181640625 -27.366134643554688,-10.333159446716309 -27.366134643554688,-10.333159446716309 C-27.366134643554688,-10.333159446716309 1.3708181381225586,-29.21986198425293 1.3708181381225586,-29.21986198425293 C1.3708181381225586,-29.21986198425293 28.213346481323242,-7.725708484649658 28.213346481323242,-7.725708484649658 C28.213346481323242,-7.725708484649658 16.065988540649414,24.445112228393555 16.065988540649414,24.445112228393555z"/></g></g></g></svg>